<?xml version="1.0" encoding="UTF-8"?>
<svg id="Layer_1" xmlns="http://www.w3.org/2000/svg" version="1.1" xmlns:xlink="http://www.w3.org/1999/xlink" viewBox="0 0 140.6901112 140.6901112">
  <!-- Generator: Adobe Illustrator 29.6.1, SVG Export Plug-In . SVG Version: 2.1.1 Build 9)  -->
  <defs>
    <style>
      .st0 {
        fill: #161f2c;
      }

      .st1 {
        fill: #22b8ff;
      }

      .st2 {
        fill: #161e2a;
      }

      .st3 {
        fill: #edeeef;
      }

      .st4 {
        fill: #161e2b;
      }

      .st5 {
        fill: #151b25;
      }

      .st6 {
        fill: none;
      }

      .st7 {
        fill: #151922;
      }

      .st8 {
        fill: #151821;
      }

      .st9 {
        fill: #151b26;
      }

      .st10 {
        fill: #151923;
      }

      .st11 {
        fill: #16202d;
      }

      .st12 {
        fill: #16202e;
      }

      .st13 {
        fill: #161d29;
      }

      .st14 {
        fill: #151c27;
      }

      .st15 {
        fill: #16212f;
      }

      .st16 {
        fill: #151a24;
      }

      .st17 {
        clip-path: url(#clippath);
      }
    </style>
    <clipPath id="clippath">
      <rect class="st6" width="140.6901113" height="140.6901113" rx="14.9509808" ry="14.9509808"/>
    </clipPath>
  </defs>
  <g class="st17">
    <path class="st15" d="M0,0v140.6901112V0Z"/>
    <rect class="st15" width="10.0492935" height="140.6901112"/>
    <rect class="st12" x="10.0492935" width="10.049294" height="140.6901112"/>
    <rect class="st11" x="20.0985875" width="10.0492935" height="140.6901112"/>
    <rect class="st0" x="30.147881" width="10.0492935" height="140.6901112"/>
    <rect class="st4" x="40.1971745" width="10.0492935" height="140.6901112"/>
    <rect class="st2" x="50.2464681" width="10.049294" height="140.6901112"/>
    <rect class="st13" x="60.2957621" width="10.0492935" height="140.6901112"/>
    <rect class="st14" x="70.3450556" width="10.0492935" height="140.6901112"/>
    <rect class="st9" x="80.3943491" width="10.049294" height="140.6901112"/>
    <rect class="st5" x="90.4436431" width="10.0492935" height="140.6901112"/>
    <rect class="st16" x="100.4929366" width="10.0492935" height="140.6901112"/>
    <rect class="st10" x="110.5422301" width="10.049294" height="140.6901112"/>
    <rect class="st7" x="120.5915241" width="10.0492935" height="140.6901112"/>
    <rect class="st8" x="130.6408176" width="10.0492935" height="140.6901112"/>
    <path class="st8" d="M140.6901112,140.6901112V0v140.6901112Z"/>
  </g>
  <path class="st1" d="M120.4423523,13.3885298c3.7822037,0,6.85923,3.0770254,6.85923,6.8592253v100.1945972c0,3.7822037-3.0770264,6.85923-6.85923,6.85923H20.2477551c-3.7821999,0-6.8592253-3.0770264-6.8592253-6.85923V20.2477551c0-3.7821999,3.0770254-6.8592253,6.8592253-6.8592253h100.1945972M120.4423523,9.3885298H20.2477551c-5.9973755,0-10.8592253,4.8618498-10.8592253,10.8592253v100.1945972c0,5.9973755,4.8618498,10.8592224,10.8592253,10.8592224h100.1945972c5.9973755,0,10.8592224-4.8618469,10.8592224-10.8592224V20.2477551c0-5.9973755-4.8618469-10.8592253-10.8592224-10.8592253h0Z"/>
  <g>
    <path class="st3" d="M69.8831787,98.969631H24.6038818v-59.3730469h9.9628906v49.3291016h33.2910156l2.0253906,10.0439453Z"/>
    <path class="st3" d="M116.7005615,90.3026388c-2.7539062,2.7011719-5.9130859,4.8193359-9.4775391,6.3583984-3.5634766,1.5390625-7.3984375,2.3085938-11.5019531,2.3085938-4.1044922,0-7.9658203-.7822266-11.5830078-2.3486328-3.6181641-1.5654297-6.7626953-3.6855469-9.4365234-6.3583984-2.6728516-2.6728516-4.7929687-5.8046875-6.3583984-9.3964844-1.5664062-3.5898438-2.3486328-7.4375-2.3486328-11.5419922,0-4.1035156.7822266-7.9648438,2.3486328-11.5830078,1.5654297-3.6171875,3.6855469-6.7636719,6.3583984-9.4365234,2.6738281-2.6728516,5.8183594-4.7919922,9.4365234-6.3583984,3.6171875-1.5654297,7.4785156-2.3496094,11.5830078-2.3496094,4.1035156,0,7.9511719.7695312,11.5429688,2.3085938,3.5908203,1.5390625,6.7353516,3.6855469,9.4365234,6.4394531l-7.2089844,7.2089844c-1.7822266-1.7822266-3.8476562-3.1855469-6.1962891-4.2119141-2.3496094-1.0253906-4.8740234-1.5390625-7.5742188-1.5390625s-5.2382812.5136719-7.6132812,1.5390625c-2.3769531,1.0263672-4.4423828,2.4179688-6.1972656,4.171875-1.7548828,1.7548828-3.1455078,3.8203125-4.1708984,6.1962891-1.0263672,2.3769531-1.5390625,4.9140625-1.5390625,7.6142578s.5126953,5.2246094,1.5390625,7.5732422c1.0253906,2.3486328,2.4160156,4.4013672,4.1708984,6.15625s3.8203125,3.1464844,6.1972656,4.1708984c2.375,1.0263672,4.9130859,1.5390625,7.6132812,1.5390625s5.2246094-.5126953,7.5742188-1.5390625c2.3486328-1.0244141,4.4140625-2.4013672,6.1962891-4.1308594l7.2089844,7.2089844Z"/>
  </g>
</svg>