<?xml version="1.0" encoding="UTF-8"?>
<svg id="Layer_1" xmlns="http://www.w3.org/2000/svg" version="1.1" viewBox="0 0 682.2700195 101.887207">
  <!-- Generator: Adobe Illustrator 29.6.1, SVG Export Plug-In . SVG Version: 2.1.1 Build 9)  -->
  <defs>
    <style>
      .st0 {
        fill: #edeeef;
      }
    </style>
  </defs>
  <polygon class="st0" points="17.097168 84.6513672 17.097168 0 0 0 0 101.887207 17.097168 101.887207 77.7011719 101.887207 74.2260742 84.6513672 17.097168 84.6513672"/>
  <rect class="st0" x="91.878418" width="17.097168" height="101.887207"/>
  <polygon class="st0" points="183.6176758 62.550293 183.6176758 85.9023438 199.0463867 101.887207 199.0463867 0 183.6176758 0 183.6176758 62.550293"/>
  <polygon class="st0" points="123.1523438 101.887207 138.581543 101.887207 138.581543 39.3374023 178.7524414 80.8984375 178.7524414 57.6850586 123.1523438 0 123.1523438 101.887207"/>
  <polygon class="st0" points="286.4770508 0 265.2099609 0 230.0429688 47.5380859 230.0429688 0 212.9458008 0 212.9458008 101.887207 230.0429688 101.887207 230.0429688 76.5893555 232.9619141 72.6972656 251.8657227 47.1210938 286.4770508 0"/>
  <polygon class="st0" points="243.6650391 65.0522461 270.9086914 101.887207 292.1757812 101.887207 254.3681641 50.5961914 243.6650391 65.0522461"/>
  <path class="st0" d="M324.0004883,27.3134766c3.0102539-3.0097656,6.5546875-5.3969727,10.6337891-7.1582031,4.0766602-1.7592773,8.4311523-2.6411133,13.065918-2.6411133,4.6323242,0,8.965332.8818359,12.996582,2.6411133,4.0307617,1.7612305,7.5751953,4.1699219,10.6333008,7.2280273l12.3710938-12.3710938c-4.6347656-4.7260742-10.0317383-8.409668-16.1933594-11.050293-6.1640625-2.6411133-12.7666016-3.9619141-19.8076172-3.9619141-7.043457,0-13.6699219,1.3447266-19.8769531,4.03125-6.2094727,2.6889648-11.6064453,6.3242188-16.1933594,10.9116211-4.5874023,4.5869141-8.2250977,9.9863281-10.9116211,16.1933594-2.6889648,6.2094727-4.03125,12.8359375-4.03125,19.8769531,0,7.043457,1.3422852,13.6459961,4.03125,19.8076172,2.6865234,6.1635742,6.3242188,11.5371094,10.9116211,16.1240234,4.5869141,4.5869141,9.9838867,8.2246094,16.1933594,10.9116211,6.2070312,2.6889648,12.8334961,4.0307617,19.8769531,4.0307617,7.0410156,0,13.6220703-1.3203125,19.737793-3.9614258,6.1162109-2.6411133,11.5371094-6.2768555,16.2631836-10.9116211l-12.3710938-12.3710938c-3.0581055,2.9667969-6.6025391,5.3300781-10.6333008,7.0893555-4.03125,1.7612305-8.3642578,2.640625-12.996582,2.640625-4.6347656,0-8.9892578-.8793945-13.065918-2.640625-4.0791016-1.7592773-7.6235352-4.1464844-10.6337891-7.1586914-3.012207-3.0102539-5.3989258-6.5332031-7.1582031-10.5639648-1.7617188-4.03125-2.6411133-8.3618164-2.6411133-12.996582,0-4.6328125.8793945-8.9873047,2.6411133-13.065918,1.7592773-4.0766602,4.1459961-7.6210938,7.1582031-10.6337891Z"/>
  <polygon class="st0" points="456.9536133 54.9052734 451.8105469 54.9052734 440.2394409 54.9052734 414.9755859 54.9052734 414.9755859 0 397.878418 0 397.878418 55.0444336 397.878418 72.1411133 397.878418 101.887207 414.9755859 101.887207 414.9755859 72.1411133 448.4746094 72.1411133 448.4875488 72.0744019 456.9536133 72.0744019 456.9536133 101.887207 474.0507812 101.887207 474.0507812 0 456.9536133 0 456.9536133 54.9052734"/>
  <path class="st0" d="M574.7553711,14.9428711c-4.5869141-4.5874023-9.9624023-8.2226562-16.1240234-10.9116211-6.1635742-2.6865234-12.7661133-4.03125-19.8076172-4.03125-7.043457,0-13.6459961,1.3447266-19.8076172,4.03125-6.1635742,2.6889648-11.5605469,6.3242188-16.1933594,10.9116211-4.6347656,4.5869141-8.2944336,9.9863281-10.980957,16.1933594-2.6889648,6.2094727-4.0307617,12.8359375-4.0307617,19.8769531,0,7.043457,1.3417969,13.6459961,4.0307617,19.8076172,2.6865234,6.1635742,6.3461914,11.5371094,10.980957,16.1240234,4.6328125,4.5869141,10.0297852,8.2246094,16.1933594,10.9116211,6.1616211,2.6889648,12.7641602,4.0307617,19.8076172,4.0307617,7.0415039,0,13.644043-1.3417969,19.8076172-4.0307617,6.1616211-2.6870117,11.5371094-6.324707,16.1240234-10.9116211s8.2226562-9.9604492,10.9116211-16.1240234c2.6865234-6.1616211,4.0307617-12.7641602,4.0307617-19.8076172,0-7.0410156-1.3442383-13.6674805-4.0307617-19.8769531-2.6889648-6.2070312-6.324707-11.6064453-10.9116211-16.1933594ZM569.6816406,64.1767578c-1.7612305,4.0854492-4.1479492,7.6367188-7.1582031,10.6552734-3.0126953,3.019043-6.5571289,5.4101562-10.6337891,7.1738281-4.0786133,1.7636719-8.4331055,2.6455078-13.065918,2.6455078-4.6347656,0-8.9892578-.8818359-13.065918-2.6455078-4.0786133-1.7636719-7.6230469-4.1547852-10.6333008-7.1738281-3.0126953-3.0185547-5.3994141-6.5698242-7.1586914-10.6552734-1.7612305-4.0849609-2.6411133-8.4506836-2.6411133-13.0942383,0-4.6430664.8798828-9.0063477,2.6411133-13.0917969,1.7592773-4.0854492,4.1459961-7.6362305,7.1586914-10.6552734,3.0102539-3.019043,6.5546875-5.4101562,10.6333008-7.1738281,4.0766602-1.7636719,8.4311523-2.6474609,13.065918-2.6474609,4.6328125,0,8.9873047.8837891,13.065918,2.6474609,4.0766602,1.7636719,7.6210938,4.1547852,10.6337891,7.1738281,3.0102539,3.019043,5.3969727,6.5698242,7.1582031,10.6552734,1.7592773,4.0854492,2.6411133,8.4487305,2.6411133,13.0917969,0,4.6435547-.8818359,9.0092773-2.6411133,13.0942383Z"/>
  <path class="st0" d="M679.2817383,23.1435547c-1.9941406-4.5869141-4.7041016-8.59375-8.1318359-12.0234375-3.4296875-3.4272461-7.4365234-6.1376953-12.0234375-8.1313477-4.5869141-1.9916992-9.4755859-2.9887695-14.6640625-2.9887695h-40.8666992v101.887207h17.097168v-26.3345337h6.4938965l.0393066.2026978h17.2363281c5.1884766,0,10.0771484-.9951172,14.6640625-2.9887695,4.5869141-1.9916992,8.59375-4.7021484,12.0234375-8.1313477,3.4277344-3.4272461,6.1376953-7.4365234,8.1318359-12.0234375,1.9912109-4.5869141,2.9882812-9.4736328,2.9882812-14.6645508,0-5.2822266-.9970703-10.2167969-2.9882812-14.8037109ZM663.5053711,45.9135742c-1.1123047,2.4931641-2.5957031,4.6870117-4.4482422,6.5810547-1.8544922,1.8935547-4.03125,3.3706055-6.5332031,4.4326172s-5.1904297,1.5917969-8.0615234,1.5917969h-2.871582v-.135498h-20.8979492V17.2363281h23.7695312c2.8710938,0,5.5595703.5556641,8.0615234,1.6635742,2.5019531,1.1074219,4.6787109,2.5864258,6.5332031,4.4326172,1.8525391,1.8461914,3.3359375,4.0180664,4.4482422,6.5112305,1.1113281,2.4936523,1.6679688,5.1713867,1.6679688,8.0341797,0,2.8623047-.5566406,5.5424805-1.6679688,8.0356445Z"/>
</svg>